<?xml version="1.0" encoding="utf-8"?>
<!-- Generator: Adobe Illustrator 27.9.1, SVG Export Plug-In . SVG Version: 6.00 Build 0)  -->
<svg version="1.1" id="Capa_1" xmlns="http://www.w3.org/2000/svg" xmlns:xlink="http://www.w3.org/1999/xlink" x="0px" y="0px"
	 viewBox="0 0 10 10" style="enable-background:new 0 0 10 10;" xml:space="preserve">
<style type="text/css">
	.st0{fill:#FFFFFF;}
</style>
<path class="st0" d="M8.45,7.65C8.61,8.12,8.52,8.5,8.2,8.76C7.9,9,7.49,9.04,7.17,8.84c-0.44-0.27-0.54-0.68-0.4-1.17
	c-0.54,0-1.06,0-1.6,0c0.15,0.48,0.05,0.89-0.39,1.16C4.47,9.03,4.13,9.02,3.82,8.8c-0.4-0.28-0.48-0.67-0.33-1.14
	c-0.11,0-0.21,0-0.31,0c-0.47-0.01-0.83-0.3-0.86-0.73c-0.04-0.45,0.23-0.8,0.71-0.89c0.02,0,0.03-0.01,0.06-0.02
	C2.95,5.48,2.81,4.95,2.66,4.43C2.42,3.54,2.18,2.65,1.95,1.76c-0.04-0.16-0.1-0.22-0.27-0.21c-0.27,0.01-0.53,0.01-0.8,0
	c-0.2,0-0.32-0.1-0.33-0.26c0-0.16,0.12-0.26,0.32-0.26c0.3,0,0.6,0,0.9,0c0.33,0,0.56,0.17,0.65,0.5C2.51,1.84,2.6,2.15,2.67,2.46
	C2.7,2.61,2.77,2.64,2.9,2.64c1.96,0,3.92,0.01,5.89,0.02c0.08,0,0.15,0,0.23,0.01c0.3,0.05,0.49,0.34,0.41,0.65
	C9.23,4.22,9.02,5.11,8.81,6C8.73,6.37,8.49,6.56,8.11,6.56c-1.57,0-3.15,0-4.72,0c-0.1,0-0.2-0.01-0.29,0.01
	C2.94,6.58,2.85,6.68,2.84,6.83C2.83,6.98,2.91,7.09,3.06,7.12c0.07,0.02,0.15,0.02,0.22,0.02c1.61,0,3.23,0,4.84,0
	c0.04,0,0.08,0,0.12,0c0.14-0.01,0.29,0,0.35,0.16C8.66,7.46,8.58,7.57,8.45,7.65z M4.19,4.34C4.14,3.97,4.1,3.61,4.05,3.26
	c0-0.03-0.05-0.09-0.08-0.09c-0.36-0.01-0.72,0-1.1,0c0.1,0.39,0.2,0.75,0.3,1.11C3.17,4.3,3.22,4.34,3.25,4.34
	C3.56,4.34,3.87,4.34,4.19,4.34z M4.57,3.18c0.05,0.4,0.1,0.78,0.15,1.15c0.34,0,0.66,0,0.98,0c0-0.39,0-0.77,0-1.15
	C5.32,3.18,4.96,3.18,4.57,3.18z M6.25,4.33c0.34,0,0.65,0,0.98,0c0.05-0.38,0.1-0.76,0.15-1.14c-0.39,0-0.76,0-1.13,0
	C6.25,3.58,6.25,3.95,6.25,4.33z M7.76,4.34c0.29,0,0.55,0,0.81,0c0.03,0,0.09-0.04,0.1-0.07c0.09-0.36,0.17-0.71,0.25-1.08
	c-0.35,0-0.67,0-1.01,0C7.86,3.57,7.81,3.94,7.76,4.34z M4.95,6.02c0.26,0,0.5,0,0.76,0c0-0.38,0-0.76,0-1.15c-0.31,0-0.6,0-0.91,0
	C4.84,5.27,4.89,5.64,4.95,6.02z M3.32,4.88c0.1,0.36,0.19,0.71,0.29,1.06C3.63,5.98,3.7,6.03,3.75,6.03c0.22,0.01,0.44,0,0.67,0
	c-0.05-0.39-0.1-0.77-0.15-1.15C3.95,4.88,3.65,4.88,3.32,4.88z M6.25,6.02c0.26,0,0.5,0,0.76,0c0.05-0.38,0.1-0.76,0.15-1.14
	c-0.31,0-0.61,0-0.91,0C6.25,5.27,6.25,5.64,6.25,6.02z M7.54,6.02c0.06,0,0.11,0.01,0.15,0.01C8.4,6.02,8.22,6.15,8.4,5.48
	c0.05-0.2,0.09-0.4,0.13-0.6c-0.3,0-0.56,0-0.84,0C7.64,5.26,7.59,5.64,7.54,6.02z M7.62,8.44c0.21,0,0.39-0.17,0.39-0.38
	c0-0.21-0.17-0.39-0.38-0.39c-0.22-0.01-0.4,0.17-0.4,0.39C7.23,8.26,7.41,8.44,7.62,8.44z M4.33,7.66c-0.22,0-0.39,0.17-0.39,0.38
	c0,0.21,0.17,0.39,0.38,0.39c0.22,0.01,0.4-0.17,0.4-0.39C4.72,7.84,4.55,7.66,4.33,7.66z"/>
</svg>
