<?xml version="1.0" encoding="utf-8"?>
<!-- Generator: Adobe Illustrator 27.9.1, SVG Export Plug-In . SVG Version: 6.00 Build 0)  -->
<svg version="1.1" id="Capa_1" xmlns="http://www.w3.org/2000/svg" xmlns:xlink="http://www.w3.org/1999/xlink" x="0px" y="0px"
	 viewBox="0 0 10 10" style="enable-background:new 0 0 10 10;" xml:space="preserve">
<style type="text/css">
	.st0{fill:#FFFFFF;}
</style>
<path class="st0" d="M4.72,1.1c0.16-0.14,0.4-0.14,0.56,0l3.8,3.38C9.25,4.63,9.26,4.9,9.1,5.07C8.94,5.23,8.69,5.25,8.52,5.1
	L8.38,4.98v3.19c0,0.47-0.38,0.84-0.84,0.84H2.47C2,9.01,1.62,8.63,1.62,8.17V4.98L1.48,5.1C1.3,5.25,1.03,5.23,0.89,5.05
	C0.74,4.88,0.76,4.63,0.92,4.47C0.92,4.47,4.72,1.1,4.72,1.1z M2.47,4.23v3.94h1.27V6.06c0-0.23,0.19-0.42,0.42-0.42h1.69
	c0.23,0,0.42,0.19,0.42,0.42v2.11h1.27V4.23L5,1.98L2.47,4.23L2.47,4.23z M5.42,8.17V6.48H4.58v1.69H5.42z"/>
</svg>
