<?xml version="1.0" encoding="utf-8"?>
<!-- Generator: Adobe Illustrator 27.9.1, SVG Export Plug-In . SVG Version: 6.00 Build 0)  -->
<svg version="1.1" id="Capa_1" xmlns="http://www.w3.org/2000/svg" xmlns:xlink="http://www.w3.org/1999/xlink" x="0px" y="0px"
	 viewBox="0 0 514.43 160.15" style="enable-background:new 0 0 514.43 160.15;" xml:space="preserve">
<style type="text/css">
	.st0{fill:none;}
	.st1{fill:none;stroke:#F9DFFF;stroke-width:2.5625;stroke-linecap:round;stroke-linejoin:round;stroke-miterlimit:10;}
	.st2{fill:none;stroke:#F9DFFF;stroke-width:2.3791;stroke-linecap:round;stroke-linejoin:round;stroke-miterlimit:10;}
	.st3{fill:#5974FF;}
	.st4{fill:#FFFFFF;}
</style>
<g>
	<path class="st0" d="M482.83,160.15H31.6C14.15,160.15,0,146,0,128.55V31.6C0,14.15,14.15,0,31.6,0h451.23
		c17.45,0,31.6,14.15,31.6,31.6v96.95C514.43,146,500.28,160.15,482.83,160.15z"/>
</g>
<g id="BACKGROUND">
</g>
<g id="OBJECTS">
	<g>
		<g>
			<g>
				<path class="st1" d="M-91.73-199.72L-214.46-138l0.17-93.52c0.01-3.78,2.29-7.27,5.99-9.16l112.28-57.84
					c1.92-0.98,4.33,0.24,4.33,2.2L-91.73-199.72z"/>
				<path class="st1" d="M-105.54-203.19l-92.86,46.71c-1.88,0.94-4.21-0.26-4.21-2.16l0.14-66.35c0.01-3.18,1.92-6.12,5.04-7.71
					l90.23-46.55c1.62-0.83,3.65,0.2,3.65,1.85l-0.03,71.23C-103.58-204.94-104.33-203.8-105.54-203.19z"/>
				<line class="st1" x1="-191.65" y1="-219.68" x2="-167.62" y2="-231.63"/>
			</g>
			<g>
				<g>
					<path class="st1" d="M-9.25-155.7l-118.2,60.87c-0.64,0.33-1.42,0.33-2.06,0.01l-85.03-42.87l122.81-62.1l82.45,40.93
						C-7.88-158.18-7.87-156.41-9.25-155.7z"/>
					<g>
						<path class="st2" d="M-61.32-139.17l-36.87,18.88c-0.16,0.08-0.36,0.08-0.52,0l-21.64-10.89l38.12-19.18l20.91,10.38
							C-60.97-139.8-60.97-139.35-61.32-139.17z"/>
						<path class="st2" d="M-152.52-121.11c-0.16,0.08-37.08-19.27-37.08-19.27l95.51-48.47l35.83,18.43L-152.52-121.11z"/>
					</g>
				</g>
				<g>
					<g>
						<path class="st1" d="M-214.46-137.76v10.55l84.96,42.93c0.64,0.32,1.42,0.32,2.06-0.01l118.2-60.87
							c0.7-0.36,1.04-0.98,1.03-1.6l-0.09-9.22l-120.18,61.94L-214.46-137.76z"/>
						<line class="st1" x1="-128.48" y1="-94.04" x2="-128.48" y2="-84.16"/>
					</g>
				</g>
			</g>
		</g>
	</g>
</g>
<g>
	<g>
		<path class="st3" d="M46.86-103.92h24.05v11.61H32.23v-72.98h14.63V-103.92z"/>
		<path class="st3" d="M79.97-137.07c2.33-4.53,5.5-8.02,9.52-10.45c4.02-2.44,8.48-3.65,13.43-3.65c4.32,0,8.11,0.87,11.34,2.62
			c3.25,1.74,5.84,3.94,7.79,6.59v-8.26h14.74v57.92h-14.74v-8.47c-1.88,2.72-4.48,4.96-7.79,6.74c-3.31,1.77-7.13,2.66-11.44,2.66
			c-4.89,0-9.32-1.25-13.32-3.76s-7.17-6.05-9.52-10.62c-2.33-4.56-3.5-9.81-3.5-15.73C76.46-127.35,77.62-132.54,79.97-137.07z
			 M119.95-130.44c-1.4-2.54-3.28-4.5-5.64-5.85c-2.38-1.35-4.92-2.05-7.64-2.05c-2.72,0-5.23,0.66-7.53,1.99
			c-2.3,1.32-4.17,3.26-5.59,5.81s-2.15,5.56-2.15,9.04c0,3.49,0.71,6.54,2.15,9.14c1.43,2.62,3.31,4.62,5.64,6.02
			c2.33,1.4,4.83,2.09,7.47,2.09c2.72,0,5.26-0.68,7.64-2.05c2.38-1.35,4.26-3.31,5.64-5.85c1.4-2.54,2.09-5.59,2.09-9.14
			C122.03-124.84,121.34-127.89,119.95-130.44z"/>
		<path class="st3" d="M173.54-148.53c3.31-1.77,7.1-2.66,11.34-2.66c4.95,0,9.43,1.22,13.43,3.65c4,2.44,7.17,5.91,9.52,10.41
			c2.35,4.5,3.5,9.7,3.5,15.63c0,5.93-1.17,11.17-3.5,15.73c-2.33,4.57-5.5,8.11-9.52,10.62c-4.02,2.51-8.48,3.76-13.43,3.76
			c-4.26,0-8-0.87-11.23-2.62c-3.25-1.74-5.88-3.94-7.9-6.59v35.87h-14.63v-85.51h14.63v8.36
			C167.63-144.53,170.22-146.74,173.54-148.53z M194.23-130.54c-1.43-2.54-3.31-4.48-5.64-5.81c-2.33-1.32-4.86-1.99-7.58-1.99
			c-2.65,0-5.14,0.68-7.47,2.05c-2.33,1.35-4.21,3.32-5.64,5.91c-1.43,2.59-2.14,5.61-2.14,9.1s0.71,6.51,2.14,9.1
			c1.43,2.59,3.31,4.54,5.64,5.91c2.33,1.35,4.83,2.05,7.47,2.05c2.72,0,5.25-0.69,7.58-2.09c2.33-1.4,4.21-3.38,5.64-5.96
			s2.14-5.64,2.14-9.2C196.38-124.98,195.66-128,194.23-130.54z"/>
		<path class="st3" d="M233.44-94.21c-4.08-1.74-7.31-4.26-9.67-7.53c-2.38-3.28-3.59-7.14-3.65-11.61h15.69
			c0.21,2.99,1.26,5.37,3.19,7.11c1.91,1.74,4.54,2.62,7.9,2.62c3.41,0,6.09-0.81,8.05-2.45c1.96-1.64,2.93-3.77,2.93-6.44
			c0-2.17-0.66-3.94-1.99-5.34c-1.32-1.4-2.98-2.5-4.96-3.29c-1.99-0.8-4.72-1.68-8.21-2.66c-4.74-1.4-8.59-2.77-11.55-4.14
			c-2.96-1.35-5.5-3.41-7.64-6.17c-2.12-2.75-3.19-6.44-3.19-11.02c0-4.32,1.08-8.09,3.25-11.29s5.19-5.67,9.1-7.37
			c3.91-1.7,8.36-2.56,13.38-2.56c7.52,0,13.64,1.83,18.35,5.49s7.29,8.77,7.79,15.31h-16.11c-0.14-2.51-1.2-4.59-3.19-6.23
			c-1.99-1.64-4.62-2.45-7.9-2.45c-2.86,0-5.14,0.74-6.84,2.2c-1.71,1.46-2.56,3.59-2.56,6.38c0,1.96,0.65,3.58,1.94,4.86
			c1.29,1.29,2.89,2.33,4.81,3.14c1.91,0.8,4.62,1.73,8.11,2.77c4.74,1.4,8.6,2.78,11.61,4.18c2.99,1.4,5.58,3.49,7.73,6.27
			c2.17,2.78,3.25,6.45,3.25,10.98c0,3.91-1.01,7.53-3.04,10.87c-2.02,3.34-4.98,6.02-8.89,8c-3.91,1.99-8.54,2.98-13.91,2.98
			C242.1-91.59,237.52-92.46,233.44-94.21z"/>
		<path class="st3" d="M302.71-138.23v28.02c0,1.96,0.47,3.37,1.41,4.24c0.95,0.87,2.53,1.31,4.75,1.31h6.8v12.33h-9.2
			c-12.33,0-18.51-6-18.51-17.99v-27.91h-6.9v-12.03h6.9v-14.32h14.74v14.32h12.96v12.03H302.71z"/>
		<path class="st3" d="M336.89-95.09c-4.47-2.47-7.96-5.97-10.51-10.51c-2.54-4.53-3.82-9.76-3.82-15.69
			c0-5.93,1.31-11.14,3.93-15.69c2.62-4.53,6.18-8.03,10.72-10.51c4.53-2.47,9.58-3.71,15.16-3.71s10.63,1.23,15.16,3.71
			c4.53,2.48,8.11,5.99,10.72,10.51c2.62,4.53,3.93,9.76,3.93,15.69c0,5.93-1.34,11.16-4.03,15.69c-2.68,4.53-6.3,8.03-10.87,10.51
			s-9.67,3.71-15.31,3.71C346.37-91.38,341.36-92.61,336.89-95.09z M359.42-106.07c2.33-1.29,4.2-3.22,5.59-5.81
			c1.4-2.57,2.09-5.71,2.09-9.41c0-5.5-1.44-9.75-4.33-12.71c-2.89-2.96-6.44-4.44-10.62-4.44c-4.18,0-7.68,1.49-10.51,4.44
			c-2.83,2.96-4.24,7.2-4.24,12.71c0,5.5,1.38,9.75,4.14,12.71c2.75,2.96,6.23,4.44,10.41,4.44
			C354.59-104.13,357.09-104.78,359.42-106.07z"/>
		<path class="st3" d="M414.95-148.47c3.04-1.74,6.5-2.62,10.41-2.62v15.37h-3.87c-4.6,0-8.08,1.08-10.41,3.25
			c-2.33,2.17-3.5,5.93-3.5,11.29v28.86h-14.63v-57.93h14.63v8.99C409.46-144.32,411.91-146.72,414.95-148.47z"/>
		<path class="st3" d="M488.59-116.9h-42.35c0.35,4.18,1.82,7.46,4.39,9.84c2.57,2.38,5.74,3.55,9.52,3.55
			c5.44,0,9.31-2.33,11.61-7.01h15.79c-1.67,5.58-4.89,10.17-9.63,13.75c-4.74,3.59-10.56,5.38-17.46,5.38
			c-5.58,0-10.57-1.23-15.01-3.71c-4.42-2.47-7.88-5.97-10.35-10.51c-2.48-4.53-3.71-9.76-3.71-15.69c0-6,1.22-11.25,3.65-15.79
			c2.44-4.53,5.85-8.02,10.24-10.45c4.39-2.44,9.44-3.65,15.16-3.65c5.5,0,10.44,1.19,14.8,3.55c4.36,2.38,7.73,5.73,10.14,10.09
			c2.41,4.36,3.61,9.35,3.61,15.01C489.01-120.45,488.88-118.57,488.59-116.9z M473.85-126.72c-0.08-3.76-1.43-6.78-4.08-9.04
			c-2.65-2.27-5.9-3.4-9.73-3.4c-3.62,0-6.68,1.1-9.14,3.29c-2.48,2.2-3.99,5.25-4.54,9.14H473.85z"/>
	</g>
</g>
<g>
	<g>
		<g>
			<path class="st4" d="M61.04,91.04h22.45v10.84H47.38V33.73h13.66V91.04z"/>
			<path class="st4" d="M91.95,60.09c2.18-4.23,5.14-7.48,8.89-9.76c3.75-2.27,7.92-3.41,12.54-3.41c4.03,0,7.57,0.81,10.59,2.44
				c3.03,1.63,5.45,3.68,7.27,6.15V47.8H145v54.07h-13.76v-7.91c-1.76,2.54-4.18,4.63-7.27,6.29s-6.66,2.49-10.69,2.49
				c-4.56,0-8.71-1.17-12.44-3.51c-3.74-2.34-6.7-5.64-8.89-9.91c-2.18-4.25-3.27-9.16-3.27-14.69
				C88.67,69.16,89.75,64.31,91.95,60.09z M129.28,66.28c-1.31-2.37-3.06-4.2-5.27-5.46c-2.22-1.26-4.59-1.91-7.13-1.91
				s-4.89,0.62-7.03,1.85s-3.89,3.05-5.22,5.42c-1.33,2.37-2.01,5.2-2.01,8.44c0,3.26,0.66,6.11,2.01,8.54
				c1.33,2.44,3.09,4.31,5.27,5.62c2.18,1.31,4.51,1.95,6.98,1.95c2.54,0,4.91-0.63,7.13-1.91c2.22-1.26,3.97-3.09,5.27-5.46
				c1.31-2.37,1.95-5.22,1.95-8.54S130.57,68.65,129.28,66.28z"/>
			<path class="st4" d="M179.31,49.39c3.09-1.66,6.63-2.49,10.59-2.49c4.62,0,8.8,1.14,12.54,3.41c3.74,2.27,6.7,5.52,8.89,9.72
				c2.19,4.2,3.27,9.06,3.27,14.59s-1.1,10.43-3.27,14.69c-2.18,4.27-5.14,7.57-8.89,9.91c-3.75,2.34-7.92,3.51-12.54,3.51
				c-3.97,0-7.47-0.81-10.49-2.44c-3.03-1.63-5.49-3.68-7.37-6.15v33.49h-13.66V47.79h13.66v7.81
				C173.79,53.12,176.21,51.06,179.31,49.39z M198.63,66.18c-1.33-2.37-3.09-4.18-5.27-5.42s-4.54-1.85-7.08-1.85
				c-2.47,0-4.8,0.63-6.98,1.91c-2.18,1.26-3.93,3.1-5.27,5.52c-1.33,2.42-1.99,5.24-1.99,8.5s0.66,6.08,1.99,8.5
				c1.33,2.42,3.09,4.24,5.27,5.52c2.18,1.26,4.51,1.91,6.98,1.91c2.54,0,4.9-0.65,7.08-1.95c2.18-1.31,3.93-3.16,5.27-5.56
				c1.33-2.4,1.99-5.27,1.99-8.59C200.64,71.38,199.97,68.55,198.63,66.18z"/>
			<path class="st4" d="M235.24,100.11c-3.81-1.63-6.82-3.97-9.03-7.03c-2.22-3.06-3.36-6.67-3.41-10.84h14.65
				c0.2,2.79,1.18,5.01,2.98,6.64c1.78,1.63,4.24,2.44,7.37,2.44c3.19,0,5.69-0.76,7.51-2.29c1.83-1.53,2.74-3.52,2.74-6.01
				c0-2.02-0.62-3.68-1.85-4.98c-1.24-1.31-2.78-2.33-4.63-3.08c-1.85-0.74-4.41-1.57-7.67-2.49c-4.42-1.31-8.02-2.58-10.78-3.86
				c-2.77-1.26-5.14-3.19-7.13-5.76c-1.98-2.57-2.98-6.01-2.98-10.29c0-4.03,1.01-7.55,3.03-10.55s4.84-5.29,8.5-6.88
				c3.65-1.59,7.81-2.39,12.5-2.39c7.02,0,12.74,1.71,17.13,5.13s6.81,8.19,7.27,14.29h-15.04c-0.13-2.34-1.12-4.28-2.98-5.81
				c-1.85-1.53-4.31-2.29-7.37-2.29c-2.67,0-4.8,0.69-6.39,2.05c-1.6,1.36-2.39,3.36-2.39,5.95c0,1.83,0.6,3.34,1.81,4.54
				c1.21,1.21,2.7,2.18,4.49,2.93c1.78,0.74,4.31,1.61,7.57,2.58c4.42,1.31,8.03,2.6,10.84,3.9c2.79,1.31,5.21,3.26,7.22,5.86
				c2.02,2.6,3.03,6.02,3.03,10.25c0,3.65-0.94,7.03-2.84,10.15c-1.88,3.12-4.65,5.62-8.3,7.47c-3.65,1.85-7.98,2.78-12.99,2.78
				C243.33,102.55,239.05,101.74,235.24,100.11z"/>
			<path class="st4" d="M299.92,59.01v26.16c0,1.83,0.44,3.15,1.32,3.96c0.88,0.81,2.36,1.22,4.44,1.22h6.35v11.51h-8.59
				c-11.51,0-17.29-5.6-17.29-16.79V59.01h-6.45V47.77h6.45V34.41h13.76v13.37h12.1v11.23H299.92z"/>
			<path class="st4" d="M404.71,49.44c2.84-1.63,6.07-2.44,9.72-2.44v14.35h-3.61c-4.3,0-7.54,1.01-9.72,3.03
				c-2.18,2.02-3.27,5.53-3.27,10.55v23.21l-13.66-5.6V47.79h13.66v8.4C399.59,53.32,401.88,51.07,404.71,49.44z"/>
			<path class="st4" d="M473.47,78.92h-39.54c0.32,3.9,1.7,6.96,4.1,9.18c2.4,2.22,5.36,3.31,8.89,3.31c5.08,0,8.69-2.18,10.84-6.54
				h14.74c-1.56,5.21-4.56,9.49-8.99,12.83c-4.42,3.36-9.86,5.03-16.3,5.03c-5.21,0-9.87-1.15-14.01-3.47
				c-4.13-2.3-7.36-5.57-9.66-9.82c-2.32-4.23-3.47-9.11-3.47-14.65c0-5.6,1.14-10.5,3.41-14.74c2.27-4.23,5.46-7.48,9.56-9.76
				c4.1-2.27,8.82-3.41,14.15-3.41c5.14,0,9.74,1.11,13.82,3.31c4.07,2.22,7.22,5.35,9.46,9.42s3.37,8.73,3.37,14.01
				C473.87,75.6,473.74,77.36,473.47,78.92z M459.71,69.75c-0.07-3.51-1.33-6.33-3.81-8.44c-2.47-2.12-5.5-3.17-9.09-3.17
				c-3.38,0-6.23,1.03-8.54,3.08c-2.32,2.05-3.72,4.9-4.24,8.54H459.71z"/>
		</g>
	</g>
	<g>
		<g>
			<path class="st4" d="M413.83,136.56c-0.36-2.28-1.8-3.72-3.33-5.25c-1.88-1.88-3.76-3.76-5.64-5.64c-3.3-3.3-6.59-6.59-9.89-9.89
				c2.22-2.22,4.44-4.44,6.65-6.65c0.94-0.94,1.93-1.84,2.81-2.84c2.51-2.84,1.74-6.69-1.74-8.26c-0.08-0.03-0.15-0.05-0.23-0.08
				c-0.08-0.05-0.17-0.09-0.26-0.13c-8.48-3.23-16.96-6.45-25.44-9.68c-9.31-3.54-18.55-7.36-27.96-10.64
				c-2.72-0.95-5.98-0.07-5.96,3.33c0.01,1.23,0.54,2.38,0.97,3.51c1.65,4.34,3.3,8.67,4.95,13.01c4.4,11.57,8.81,23.15,13.21,34.72
				c1.26,3.32,2.49,8.74,7.12,8.06c2.44-0.36,4.18-2.65,5.83-4.3c2.22-2.22,4.44-4.44,6.65-6.65c2.72,2.72,5.44,5.44,8.16,8.16
				c2.08,2.08,4.17,4.17,6.25,6.25c1.07,1.07,2.11,2.31,3.35,3.2c3.58,2.59,7.35,1,10.13-1.78
				C411.87,142.63,414.42,140.35,413.83,136.56z M407.9,140.77c-1.77,1.77-3.88,4.63-6.52,2.4c-3.05-2.59-5.75-5.75-8.58-8.58
				c-3.25-3.25-6.51-6.51-9.76-9.76c-0.79-0.79-2.12-0.79-2.91,0c-3.38,3.38-6.75,6.75-10.13,10.13c-0.43,0.43-1.15,1.37-1.79,1.12
				c-0.46-0.18-0.57-0.7-0.75-1.1c-0.5-1.11-0.88-2.3-1.31-3.44c-4.09-10.75-8.18-21.49-12.27-32.24c-1.77-4.65-3.54-9.3-5.31-13.95
				c-0.35-0.92-0.71-1.84-1.05-2.76c-0.17-0.5-0.39-1.3,0.02-1.15c0.08,0.03,0.15,0.06,0.23,0.09c8.74,3.03,17.33,6.6,25.98,9.89
				c9.37,3.56,12.79,4.87,26.99,10.27c1.82,0.88,0.73,1.82-0.31,2.86c-1.2,1.2-2.4,2.4-3.6,3.6c-2.07,2.07-4.15,4.15-6.22,6.22
				c-0.79,0.79-0.79,2.12,0,2.91c6.02,6.02,12.25,11.89,18.08,18.08C410.58,137.33,409.56,139.11,407.9,140.77z"/>
		</g>
		<g>
			<g>
				<path class="st4" d="M342.31,103.52c-15.34,0-27.82-12.48-27.82-27.82c0-15.34,12.48-27.82,27.82-27.82
					c15.34,0,27.82,12.48,27.82,27.82h-3.65c0-13.33-10.84-24.17-24.17-24.17c-13.32,0-24.16,10.84-24.16,24.17
					c0,13.32,10.84,24.16,24.16,24.16V103.52z"/>
			</g>
			<g>
				<path class="st4" d="M342.31,96.12c-11.26,0-20.41-9.16-20.41-20.41c0-11.26,9.16-20.41,20.41-20.41
					c11.26,0,20.41,9.16,20.41,20.41h-1.83c0-10.25-8.34-18.59-18.59-18.59c-10.25,0-18.59,8.34-18.59,18.59s8.34,18.59,18.59,18.59
					V96.12z"/>
			</g>
			<g>
				<path class="st4" d="M342.31,88.33c-6.96,0-12.63-5.66-12.63-12.63c0-6.96,5.66-12.63,12.63-12.63
					c6.96,0,12.63,5.66,12.63,12.63h-0.91c0-6.46-5.26-11.71-11.71-11.71s-11.71,5.26-11.71,11.71s5.25,11.71,11.71,11.71V88.33z"/>
			</g>
		</g>
	</g>
</g>
</svg>
